<?xml version="1.0" standalone="no"?>
<!DOCTYPE svg PUBLIC "-//W3C//DTD SVG 20010904//EN"
 "http://www.w3.org/TR/2001/REC-SVG-20010904/DTD/svg10.dtd">
<svg version="1.0" xmlns="http://www.w3.org/2000/svg"
 width="1280.000000pt" height="1280.000000pt" viewBox="0 0 1280.000000 1280.000000"
 preserveAspectRatio="xMidYMid meet">

<g transform="translate(0.000000,1280.000000) scale(0.100000,-0.100000)"
fill="#000000" stroke="none">
<path d="M6040 12499 c-113 -5 -224 -11 -247 -14 l-43 -6 5 -72 c3 -40 12
-207 20 -372 8 -165 18 -339 21 -387 l6 -87 87 5 c47 2 152 7 234 10 l147 6 0
80 0 80 -149 -4 -149 -3 -6 35 c-3 19 -6 72 -6 117 l0 82 153 3 152 3 0 80 0
80 -157 -4 -158 -3 0 101 c0 56 1 102 3 103 1 0 72 4 157 7 l155 6 0 79 c0 45
-4 80 -10 81 -5 1 -102 -2 -215 -6z"/>
<path d="M6477 12503 c-3 -4 -8 -213 -12 -464 l-8 -457 104 -6 c57 -3 163 -8
235 -11 l131 -6 6 77 c4 42 5 79 2 84 -2 4 -67 9 -144 13 -77 3 -143 7 -148
10 -4 3 -7 56 -5 117 l3 113 157 -4 157 -4 3 76 3 76 -32 7 c-17 3 -87 6 -155
6 l-124 0 0 106 0 106 163 -3 162 -4 7 75 c4 41 4 78 0 81 -11 10 -499 22
-505 12z"/>
<path d="M7135 12480 c-3 -5 -8 -42 -11 -83 l-7 -74 99 -7 c54 -4 100 -9 103
-11 4 -4 -46 -554 -66 -726 l-5 -46 82 -7 c45 -4 84 -5 87 -2 3 3 25 174 49
382 23 207 45 378 48 381 2 3 48 -1 101 -7 52 -7 97 -11 100 -9 5 6 25 153 20
157 -5 6 -125 19 -325 36 -102 9 -204 18 -228 20 -23 2 -45 0 -47 -4z"/>
<path d="M5095 12418 c-82 -11 -151 -21 -152 -23 -4 -2 105 -851 112 -883 5
-19 11 -23 28 -19 12 3 48 9 80 12 31 4 59 10 61 14 2 3 -5 83 -15 176 -11 94
-18 179 -17 190 2 16 13 21 58 26 70 7 109 -4 143 -39 25 -26 28 -39 37 -148
6 -65 13 -134 16 -153 l5 -34 82 7 c45 4 83 9 85 11 3 2 -1 73 -8 157 -13 163
-30 226 -75 268 l-24 23 28 41 c93 137 54 289 -95 362 -74 36 -156 39 -349 12z
m279 -167 c33 -31 41 -72 22 -109 -22 -44 -58 -61 -143 -72 -84 -11 -92 -7
-93 40 0 14 -3 55 -6 92 l-7 67 44 4 c95 10 157 2 183 -22z"/>
<path d="M7875 12378 c-3 -18 -28 -181 -55 -363 -28 -181 -57 -371 -65 -421
-8 -50 -15 -98 -15 -105 0 -20 288 -64 358 -56 189 22 308 223 233 392 l-21
48 49 46 c60 56 81 102 81 178 0 71 -25 128 -77 180 -60 60 -116 81 -291 108
-199 31 -190 32 -197 -7z m317 -184 c63 -33 83 -110 40 -157 -34 -39 -75 -48
-152 -36 -80 14 -77 6 -55 129 8 47 15 87 15 89 0 9 126 -12 152 -25z m-106
-365 c37 -11 68 -43 84 -83 15 -39 -2 -88 -43 -122 -29 -24 -37 -26 -104 -22
-40 3 -76 8 -79 11 -5 5 21 193 32 225 4 14 47 10 110 -9z"/>
<path d="M4574 12335 c-199 -37 -365 -73 -371 -79 -9 -8 22 -138 33 -143 7 -2
53 4 104 15 66 15 92 17 95 9 2 -7 29 -149 60 -317 30 -168 60 -328 66 -356
l10 -51 82 15 c45 8 83 16 85 17 1 1 -25 165 -59 364 -34 199 -59 365 -55 368
4 4 48 14 99 23 l92 16 -2 45 c-5 88 -12 109 -36 108 -12 0 -104 -16 -203 -34z"/>
<path d="M8797 12230 c-84 -21 -160 -79 -191 -144 -8 -17 -40 -142 -71 -276
-42 -184 -55 -257 -51 -292 11 -104 97 -210 196 -243 135 -45 299 23 356 149
7 17 43 137 80 266 74 266 77 300 28 391 -62 113 -219 181 -347 149z m166
-201 c27 -29 29 -37 24 -83 -3 -28 -31 -143 -61 -256 -49 -182 -59 -208 -86
-232 -60 -54 -161 -22 -175 55 -5 28 71 377 106 485 25 77 135 95 192 31z"/>
<path d="M3910 12191 c-234 -61 -380 -103 -380 -110 0 -12 36 -120 42 -126 3
-3 70 12 149 33 213 58 203 56 195 35 -14 -35 -155 -499 -177 -580 -21 -80
-21 -82 -4 -147 10 -36 23 -66 29 -66 29 0 521 129 521 137 0 29 -28 133 -35
133 -11 0 -255 -57 -299 -70 -19 -5 -36 -8 -38 -7 -4 5 70 244 145 468 l68
204 -14 68 c-13 58 -18 67 -36 66 -12 0 -86 -18 -166 -38z"/>
<path d="M9355 12058 c9 -76 25 -384 25 -479 0 -83 -5 -106 -56 -265 -31 -96
-54 -180 -51 -187 6 -16 147 -61 157 -50 4 4 35 91 69 194 l61 185 152 185
c83 101 169 204 191 228 35 38 38 45 23 53 -13 8 -154 58 -161 58 -1 0 -51
-68 -110 -150 -59 -83 -112 -153 -117 -156 -5 -3 -8 71 -8 181 1 103 -2 191
-7 195 -9 9 -143 50 -161 50 -8 0 -10 -15 -7 -42z"/>
<path d="M3101 11953 l-104 -36 7 -76 c10 -108 95 -782 102 -804 3 -10 11 -17
17 -14 7 2 43 14 80 27 l68 24 -6 51 -7 51 89 27 c48 15 91 27 95 27 4 0 17
-18 28 -40 11 -22 24 -40 28 -40 22 0 152 44 152 52 0 31 -413 782 -432 785
-7 1 -60 -14 -117 -34z m192 -435 c42 -81 77 -151 77 -156 0 -10 -117 -48
-125 -40 -4 4 -55 353 -55 378 0 11 32 -45 103 -182z"/>
<path d="M10138 11797 c-126 -36 -198 -134 -198 -271 0 -79 29 -141 107 -232
144 -168 157 -197 106 -254 -51 -56 -135 -50 -173 12 -24 40 -25 73 -4 123 8
21 12 41 7 46 -9 8 -140 59 -153 59 -5 0 -18 -30 -30 -66 -67 -201 91 -399
305 -382 103 9 187 67 231 163 51 109 21 206 -107 350 -114 127 -126 156 -94
231 15 36 62 64 107 64 37 0 88 -38 104 -77 15 -35 14 -40 -14 -112 -34 -87
-40 -77 69 -122 l70 -28 31 67 c59 127 46 237 -38 331 -80 88 -215 129 -326
98z"/>
<path d="M2445 11717 c-70 -24 -120 -54 -162 -100 -55 -60 -74 -99 -80 -167
-5 -56 -2 -65 92 -279 84 -189 104 -227 141 -261 136 -125 389 -69 470 105 37
78 32 146 -20 280 -24 61 -47 109 -52 108 -22 -4 -250 -95 -258 -103 -9 -9 42
-140 55 -140 4 0 28 9 52 19 l45 20 16 -40 c20 -49 20 -62 1 -99 -33 -63 -126
-80 -174 -32 -38 38 -195 415 -187 448 4 13 19 38 34 55 32 36 100 49 142 27
21 -11 50 -54 63 -92 3 -9 134 34 165 53 10 6 8 19 -8 57 -42 98 -113 145
-225 151 -41 1 -87 -3 -110 -10z"/>
<path d="M10723 11268 c28 -78 96 -323 90 -328 -4 -4 -71 -52 -147 -106 l-139
-99 181 -3 181 -2 45 -143 c25 -78 48 -155 52 -170 3 -15 9 -25 13 -22 3 4 31
79 61 168 l55 162 178 -4 c97 -2 177 -1 177 2 0 2 -62 51 -137 107 -76 57
-140 104 -142 106 -2 1 22 78 53 170 31 92 55 169 53 170 -1 1 -63 -40 -137
-93 -74 -52 -140 -97 -146 -100 -7 -2 -73 41 -148 96 -74 56 -138 101 -142
101 -3 0 -4 -6 -1 -12z"/>
<path d="M1411 11012 c21 -96 36 -179 33 -183 -2 -4 -69 -44 -149 -89 -80 -45
-147 -86 -150 -90 -5 -8 16 -11 223 -31 110 -11 125 -15 131 -33 5 -12 23 -92
41 -179 18 -87 36 -154 40 -150 3 5 37 78 75 163 38 85 70 156 70 158 1 1 82
-6 181 -17 98 -10 180 -18 182 -16 1 1 -58 57 -132 124 l-135 121 45 101 c25
55 58 130 74 165 16 35 26 64 22 64 -4 0 -74 -38 -156 -85 -81 -47 -152 -85
-156 -85 -4 0 -64 51 -133 114 -69 63 -130 116 -134 119 -5 3 8 -74 28 -171z"/>
<path d="M6400 9440 l0 -50 -315 0 -315 0 0 -45 0 -45 315 0 315 0 0 45 0 45
1190 0 1190 0 0 -47 0 -48 178 1 177 2 3 46 3 46 -180 0 -180 0 -3 48 -3 47
-1187 3 -1188 2 0 -50z"/>
<path d="M2340 9196 l0 -275 48 -3 47 -3 3 -62 3 -63 99 0 100 0 0 -110 0
-110 -110 0 -110 0 0 -45 c0 -38 3 -45 20 -45 17 0 20 -7 20 -50 l0 -50 90 0
90 0 0 -45 0 -45 95 0 95 0 0 35 0 34 63 3 62 3 3 53 3 53 147 -3 147 -3 3
-47 3 -48 215 0 214 0 0 -265 0 -265 55 0 55 0 0 -50 0 -50 45 0 45 0 0 -40 0
-40 100 0 100 0 0 -54 0 -55 38 -3 c33 -3 37 -6 36 -30 -1 -26 2 -28 37 -28
l39 0 0 -45 0 -44 83 -3 82 -3 3 -47 3 -48 59 0 59 0 3 -77 3 -78 218 -3 217
-2 0 -990 0 -990 55 0 55 0 0 -140 0 -140 -70 0 -70 0 0 -1070 0 -1070 95 0
95 0 2 353 3 352 62 3 c39 2 63 8 66 16 3 7 7 233 8 502 l3 489 -47 3 -47 3
-2 892 -3 892 -57 3 -58 3 0 329 0 330 100 0 100 0 0 55 0 55 100 0 100 0 0
45 0 45 50 0 50 0 0 65 0 65 -155 0 -155 0 0 80 0 80 -100 0 -99 0 -3 -77 -3
-78 -112 -3 -113 -3 0 76 0 75 -50 0 -50 0 0 -75 0 -75 -45 0 -46 0 3 78 c3
84 -3 77 71 81 15 1 17 12 17 91 l0 90 -45 0 -45 0 0 110 0 110 -50 0 -50 0 0
-44 0 -45 -47 -3 -48 -3 -1 -60 -1 -60 -122 -2 -121 -1 0 164 0 164 50 0 50 0
0 60 0 60 110 0 110 0 0 -50 0 -50 165 0 165 0 0 -45 0 -44 103 -3 102 -3 3
-47 3 -48 45 0 44 0 0 260 0 260 55 0 55 0 0 -50 0 -50 110 0 110 0 0 50 0 50
65 0 65 0 0 -255 c0 -219 2 -255 15 -256 8 -1 20 -3 25 -4 6 -1 15 -3 20 -4 6
-1 10 -68 10 -181 l0 -180 -50 0 -50 0 0 -65 0 -65 195 0 195 0 0 40 0 40 70
0 70 0 0 -55 0 -55 50 0 50 0 0 -114 0 -115 48 -3 47 -3 3 -42 3 -43 95 0 94
0 0 -48 0 -48 73 1 72 0 1 -50 1 -50 211 -3 211 -2 3 -63 3 -62 42 -3 42 -3 3
-47 3 -47 48 -3 47 -3 0 -50 0 -49 200 0 200 0 0 -38 c0 -58 17 -75 73 -71
l46 4 3 -65 3 -65 48 -3 47 -3 0 71 0 71 68 -3 67 -3 3 -32 c3 -31 6 -33 43
-33 l39 0 0 -60 0 -59 103 -3 102 -3 3 -52 3 -53 40 0 c35 0 39 -3 39 -25 0
-14 7 -28 15 -31 8 -4 15 -19 15 -35 0 -27 -2 -28 -57 -31 l-58 -3 0 -45 0
-45 58 -3 58 -3 -3 -132 c-3 -129 -3 -132 -25 -129 -19 3 -22 -2 -25 -35 l-3
-38 -103 -3 -102 -3 2 -172 3 -172 28 -3 c24 -3 27 -7 27 -43 l0 -39 -45 0
-45 0 0 -145 0 -145 55 0 55 0 0 -85 0 -85 55 0 55 0 0 -55 0 -55 45 0 45 0 0
-260 0 -260 45 0 45 0 0 -220 0 -220 50 0 50 0 0 -100 0 -100 50 0 50 0 0 100
0 100 -50 0 -50 0 0 220 0 220 -50 0 -50 0 0 259 0 260 33 3 c30 3 32 5 32 43
l0 40 62 3 c57 3 62 5 61 25 -3 64 -1 67 47 67 l45 0 0 50 0 50 -95 0 -95 0 0
-50 0 -50 -35 0 c-19 0 -43 4 -53 9 -9 5 -25 12 -34 15 -11 3 -18 15 -18 31 0
22 -4 25 -35 25 -19 0 -35 5 -35 10 0 6 -7 10 -15 10 -12 0 -15 14 -15 70 l0
70 55 0 c45 0 53 3 48 16 -3 8 0 26 6 38 7 12 11 38 9 57 l-3 34 -62 3 -63 3
0 79 0 80 45 0 c41 0 45 -2 45 -25 0 -24 2 -24 93 -27 l92 -3 3 -47 3 -48 200
0 200 0 -3 -52 -3 -53 -47 -3 -48 -3 0 -40 0 -39 -60 0 -60 0 0 -45 0 -45 60
0 59 0 3 -157 c3 -157 3 -158 27 -161 12 -2 34 -1 47 2 l24 6 0 195 0 195 45
0 44 0 3 63 3 62 53 3 53 3 -3 147 -3 147 -45 0 -45 0 -3 -67 -3 -68 -204 0
-205 0 0 155 0 155 -45 0 -45 0 0 45 c0 38 -3 45 -20 45 -17 0 -19 8 -22 68
l-3 67 -45 5 -45 5 -1 143 c-1 111 1 142 12 142 7 0 14 12 16 28 3 25 7 27 51
30 l47 3 0 45 0 44 -120 0 -120 0 0 55 0 55 -100 0 -100 0 0 50 0 50 155 0
155 0 0 45 0 45 -110 0 -110 0 0 28 c0 15 -3 44 -6 65 l-7 37 121 0 c116 0
120 1 125 23 3 12 4 33 3 47 -2 24 -6 25 -69 28 -64 3 -67 4 -67 28 0 26 0 26
-82 22 l-83 -3 -1 -50 -1 -50 -49 -5 -49 -5 3 -42 c3 -43 3 -43 -30 -43 -63 0
-78 -9 -78 -46 l0 -34 -125 0 -125 0 0 39 c0 75 11 71 -216 71 l-203 0 -3 48
-3 47 -42 -3 -43 -4 0 56 0 56 -45 0 -44 0 -3 63 -3 62 -212 3 -213 2 0 50 0
50 -82 1 c-46 1 -90 3 -98 4 -8 1 -25 3 -37 4 -20 1 -23 6 -23 46 l0 45 -45 0
-45 0 0 40 0 40 -55 0 -54 0 -3 118 -3 117 -45 0 -45 0 -3 58 -3 57 -94 0 -95
0 0 245 0 245 -45 0 -45 0 0 -254 c0 -140 -3 -261 -6 -270 -5 -12 -21 -16 -70
-16 l-64 0 0 230 0 230 -40 0 -40 0 0 265 0 265 60 0 60 0 0 -225 0 -225 45 0
45 0 0 270 0 270 -22 1 c-13 1 -43 2 -68 3 l-45 1 -3 83 -3 82 -79 0 -80 0 0
-140 0 -140 -275 0 -275 0 -2 -207 -3 -208 -55 0 -55 0 -3 48 -3 47 -210 0
-209 0 0 45 0 45 -45 0 -45 0 0 75 0 75 -100 0 -100 0 0 -75 0 -75 -65 0 -65
0 0 -55 0 -55 -35 0 -34 0 -3 -87 -3 -88 -55 0 -55 0 -5 50 -5 50 -40 2 c-22
1 -46 2 -52 2 -10 1 -13 51 -13 216 l0 215 60 0 60 0 0 165 0 165 45 0 44 0 3
93 3 92 48 0 47 0 0 53 0 52 60 0 60 0 0 80 0 80 120 0 120 0 0 40 0 40 253
-2 252 -3 1 -50 1 -50 62 2 c48 2 63 0 68 -13 4 -10 17 -15 37 -14 55 3 56 2
56 -45 0 -43 1 -45 30 -45 29 0 29 0 32 -67 l3 -68 63 -3 62 -3 0 -54 0 -55
50 0 50 0 0 -60 0 -60 45 0 45 0 0 110 0 110 -50 0 -50 0 0 50 c0 48 -1 50
-29 50 -16 0 -43 3 -60 6 l-31 7 0 68 0 68 40 -2 40 -3 0 48 0 48 171 0 170 0
-3 48 -3 47 -165 0 -165 0 -3 -47 -3 -48 -140 0 -139 0 0 60 0 60 -642 0
c-354 0 -660 3 -680 6 l-37 6 -3 -63 -3 -64 -207 -3 -208 -2 0 -45 0 -44 -97
-3 -98 -3 -5 -70 -5 -71 -102 -3 -102 -2 -3 103 -3 103 -57 3 -58 3 0 49 0 50
-45 0 -45 0 0 44 c0 48 -9 56 -66 56 l-34 0 0 50 0 50 -155 0 -155 0 0 -274z
m1745 -9 c0 -29 4 -37 18 -37 12 0 17 -8 17 -30 0 -30 -1 -30 -55 -30 l-55 0
0 -55 0 -55 -50 0 -50 0 0 -139 0 -140 -47 -3 -48 -3 -3 -62 -3 -63 -99 0 -99
0 -3 -52 -3 -53 -122 -3 -123 -3 0 141 0 140 -50 0 -50 0 0 -90 0 -90 -200 0
-200 0 0 -50 0 -50 -65 0 -65 0 0 305 0 305 65 0 65 0 0 -100 0 -100 110 0
110 0 0 -40 0 -40 95 0 95 0 0 110 0 110 95 0 95 0 0 50 0 50 210 0 210 0 0
60 0 61 103 -3 102 -3 0 -38z m4553 -3905 l3 -103 -93 3 -93 3 -3 89 c-2 49 0
96 2 103 4 11 26 13 93 11 l88 -3 3 -103z m-3468 -1332 l0 -410 -65 0 -65 0 0
410 0 410 65 0 65 0 0 -410z"/>
<path d="M9150 9239 l0 -50 101 2 102 2 1 -59 1 -59 98 -3 97 -3 0 -44 0 -44
58 -3 57 -3 3 -52 3 -53 95 0 94 0 0 45 0 45 -50 0 -50 0 0 55 0 55 -59 0 -60
0 -3 46 -3 47 -90 1 -90 1 -3 63 -3 62 -149 0 -150 0 0 -51z"/>
<path d="M8930 8935 l0 -125 45 0 45 0 0 125 0 125 -45 0 -45 0 0 -125z"/>
<path d="M9870 8816 l0 -45 43 -3 42 -3 3 -52 3 -52 50 -3 50 -3 2 -100 2
-100 58 -3 57 -3 0 -49 c0 -38 -4 -50 -15 -50 -11 0 -15 -12 -15 -45 l0 -45
-51 0 -50 0 2 -72 2 -73 -41 -3 -41 -3 -3 -47 -3 -47 -92 -3 -93 -3 0 -85 0
-86 -67 4 -68 3 -3 53 -3 52 -85 1 c-46 1 -90 2 -96 3 -7 0 -14 18 -16 39 -3
37 -4 37 -48 37 -44 0 -44 0 -44 -35 l0 -35 -55 0 -55 0 0 -100 0 -100 50 0
50 0 0 50 0 50 100 0 100 0 0 -55 0 -55 -99 0 -100 0 4 -65 4 -65 -210 0 -209
0 0 -50 0 -50 250 0 250 0 2 -582 3 -583 48 -3 47 -3 0 625 c0 489 3 625 12
623 7 -1 14 8 16 21 3 19 9 22 48 22 l44 0 0 55 0 55 65 0 65 0 0 45 0 45 45
0 45 0 0 40 0 40 55 0 55 0 0 -450 0 -450 45 0 44 0 3 -67 3 -68 48 -3 47 -3
0 -45 c0 -24 5 -44 10 -44 6 0 10 -43 10 -110 l0 -110 45 0 45 0 0 109 0 110
43 3 42 3 3 193 2 192 -50 0 -50 0 0 -95 0 -95 -50 0 c-36 0 -50 4 -50 14 0 8
7 17 16 20 11 4 14 17 12 48 l-3 43 -64 3 -64 3 6 217 c4 119 7 299 7 400 l0
182 95 0 95 0 0 45 0 45 -60 0 -60 0 0 80 0 80 65 0 65 0 0 -50 0 -50 44 0
c29 0 46 -5 49 -14 3 -8 6 -207 6 -443 l1 -428 45 -3 45 -3 0 515 0 516 -40 0
c-36 0 -40 3 -40 24 0 19 -6 25 -27 28 -25 3 -28 7 -31 46 -3 37 -6 42 -28 42
-24 0 -24 1 -24 100 l0 100 -60 0 -60 0 0 105 0 105 -55 0 -55 0 0 50 0 50
-90 0 -90 0 0 -44z"/>
<path d="M8820 8630 l0 -180 50 0 50 0 0 180 0 180 -50 0 -50 0 0 -180z"/>
<path d="M8398 8573 l-3 -218 -48 -3 -48 -3 2 -202 c1 -111 4 -208 6 -214 3
-8 23 -13 49 -13 l44 0 0 65 0 65 45 0 45 0 0 50 0 50 -45 0 -45 0 0 55 0 55
45 0 45 0 0 265 0 265 -45 0 -45 0 -2 -217z"/>
<path d="M7980 8270 l0 -440 -50 0 -50 0 0 -40 0 -40 -55 0 -55 0 0 35 0 35
-55 0 -55 0 0 59 c0 38 -4 60 -12 63 -7 3 -94 4 -193 4 l-180 -1 -3 -47 -3
-47 -47 -3 -47 -3 0 -45 0 -45 45 0 45 0 3 48 3 47 104 0 104 0 3 -97 3 -98
248 -3 247 -2 0 -120 0 -120 105 0 105 0 0 50 0 50 -60 0 -60 0 0 164 0 165
48 3 47 3 0 90 0 90 -47 3 -48 3 0 340 0 339 -45 0 -45 0 0 -440z"/>
<path d="M8717 8444 c-4 -4 -7 -49 -7 -101 l0 -93 -45 0 -45 0 0 -50 0 -50 45
0 45 0 0 -110 0 -110 -55 0 -55 0 0 -89 0 -90 -47 -3 -48 -3 -3 -62 -3 -63
-49 0 -50 0 0 -50 0 -50 100 0 100 0 0 115 0 115 50 0 50 0 0 40 0 40 50 0 50
0 0 110 0 110 50 0 50 0 0 140 0 140 -51 0 -50 0 2 58 3 57 -40 3 c-22 2 -43
0 -47 -4z"/>
<path d="M9240 8400 l0 -51 48 3 47 3 0 45 0 45 -47 3 -48 3 0 -51z"/>
<path d="M9134 8337 c-3 -8 -4 -54 -2 -103 l3 -89 45 0 45 0 3 103 3 102 -46
0 c-29 0 -48 -5 -51 -13z"/>
<path d="M9028 8093 l-3 -48 -58 -3 -58 -3 3 -47 c3 -41 6 -47 26 -46 12 0 58
1 102 2 l80 2 0 95 0 95 -44 0 -45 0 -3 -47z"/>
<path d="M9449 8125 c0 -3 -1 -24 -1 -47 l-1 -43 129 0 129 0 0 45 0 45 -127
3 c-71 1 -128 0 -129 -3z"/>
<path d="M4720 7670 l0 -80 55 0 55 0 0 80 0 80 -55 0 -55 0 0 -80z"/>
<path d="M7050 7695 l0 -45 50 0 50 0 0 45 0 45 -50 0 -50 0 0 -45z"/>
<path d="M6944 7616 c-3 -8 -4 -29 -2 -48 3 -32 4 -33 48 -33 l45 0 3 48 3 47
-46 0 c-30 0 -47 -5 -51 -14z"/>
<path d="M7670 7421 l0 -108 33 -1 c17 0 38 0 45 -1 8 -1 12 -19 12 -55 l0
-55 -42 -3 -43 -3 -3 -47 c-2 -38 0 -48 12 -48 12 0 16 -10 16 -35 0 -33 2
-35 35 -35 l35 0 0 -111 0 -110 47 3 48 3 0 95 0 95 65 0 65 0 3 48 3 47 -70
0 -71 0 -1 140 c-1 77 -2 146 -3 153 -1 7 -20 13 -48 15 l-48 3 0 60 0 59 -45
0 -45 0 0 -109z"/>
<path d="M8290 7455 l0 -55 -40 0 -40 0 0 -45 0 -45 146 0 c137 0 146 -1 151
-20 3 -11 12 -20 19 -20 10 0 14 -13 14 -45 l0 -45 45 0 45 0 0 -40 c0 -39 1
-40 35 -40 l35 0 0 -50 0 -50 65 0 65 0 0 -50 0 -50 43 0 42 0 0 -162 0 -163
53 -3 52 -3 0 -160 0 -159 60 0 60 0 0 -80 0 -80 50 0 50 0 0 53 c0 30 3 88 6
130 l7 77 -66 0 -66 0 -3 158 -3 157 -52 3 -53 3 0 165 0 164 -45 0 -45 0 0
48 0 47 -62 0 -63 0 -3 48 c-3 45 -5 47 -33 47 -28 0 -29 2 -29 45 0 38 -3 45
-20 45 -11 0 -20 5 -20 10 0 6 28 10 65 10 l65 0 0 60 0 60 55 0 55 0 0 45 0
45 -100 0 -100 0 0 -55 0 -55 -170 0 -170 0 0 55 0 55 -50 0 -50 0 0 -55z"/>
<path d="M8000 6735 l0 -45 -55 0 -55 0 0 -105 0 -105 45 0 45 0 0 60 0 60 60
0 60 0 0 40 0 40 45 0 45 0 0 50 0 50 -95 0 -95 0 0 -45z"/>
<path d="M10097 6563 c-4 -3 -7 -93 -7 -200 l0 -193 45 0 45 0 0 200 0 200
-38 0 c-21 0 -42 -3 -45 -7z"/>
<path d="M9330 6215 l0 -135 -45 0 -45 0 0 -117 0 -118 -100 3 -100 4 0 -46
c0 -32 -5 -48 -15 -52 -8 -4 -15 -12 -15 -20 0 -10 -13 -14 -45 -14 l-45 0 0
-45 0 -45 -55 0 -55 0 0 -45 0 -45 105 0 105 0 0 60 0 60 45 0 45 0 0 45 0 45
65 0 65 0 0 -265 0 -265 50 0 50 0 0 385 0 385 45 0 45 0 0 180 0 180 -50 0
-50 0 0 -135z"/>
<path d="M9990 5955 l0 -205 45 0 45 0 0 205 0 205 -45 0 -45 0 0 -205z"/>
<path d="M7680 5983 c0 -82 -3 -165 -6 -185 -6 -37 -8 -38 -50 -38 l-44 0 0
-170 0 -170 -50 0 -50 0 0 -255 0 -255 45 0 45 0 0 -50 0 -50 55 0 55 0 0
-375 0 -375 50 0 50 0 0 -419 c0 -269 4 -422 10 -426 6 -3 10 -48 10 -101 l0
-94 -105 0 -105 0 0 -50 0 -50 -130 0 -130 0 0 -50 0 -50 -155 0 -155 0 0 -47
0 -48 -42 0 -43 0 -3 -202 -2 -203 520 0 520 0 0 45 0 45 44 0 c25 0 48 5 51
10 3 6 52 10 111 10 l104 0 0 40 0 40 188 0 c129 0 196 -4 215 -12 l27 -13 0
-607 0 -608 260 0 260 0 0 -50 0 -50 165 0 165 0 0 50 0 50 190 0 190 0 0
-175 0 -175 -90 0 -90 0 0 -60 0 -60 -146 0 -146 0 3 -47 3 -48 -52 -3 -52 -3
0 -35 0 -34 -115 0 -115 0 0 -85 0 -85 -70 0 -70 0 0 -44 0 -45 -42 -3 c-43
-3 -43 -3 -46 -45 l-3 -43 -390 0 -389 0 0 51 0 52 -31 -7 c-17 -3 -38 -6 -45
-6 -10 0 -14 -13 -14 -45 l0 -45 44 0 45 0 3 -47 3 -48 73 -3 72 -3 0 -29 0
-30 205 0 205 0 0 30 0 30 110 0 110 0 0 45 c0 36 4 45 18 46 84 4 77 0 80 51
l3 48 165 0 164 0 0 35 0 35 55 0 55 0 0 45 0 45 40 0 39 0 3 58 3 57 163 3
162 2 0 45 c0 38 3 45 20 46 11 1 28 2 38 3 12 1 18 12 22 41 5 40 5 40 53 43
l47 3 -2 312 -3 312 -47 3 -48 3 0 205 0 204 50 0 50 0 0 225 0 225 -45 0 -45
0 -2 397 -3 396 -45 1 -45 1 -3 414 c-1 270 1 418 8 425 5 5 10 29 10 53 l0
43 -50 0 -50 0 0 45 0 45 -45 0 -45 0 0 -45 0 -45 -85 0 -85 0 0 -45 0 -45
-45 0 -45 0 0 -50 0 -50 45 0 45 0 0 50 0 51 123 -3 122 -3 3 -417 2 -418 45
0 45 0 0 -400 0 -400 50 0 51 0 -3 -158 -3 -157 -52 -3 -53 -3 0 -270 0 -269
50 0 50 0 0 -45 0 -45 -87 -1 c-49 -1 -135 -3 -193 -5 -58 -2 -108 -4 -112 -4
-5 0 -8 -20 -8 -45 l0 -45 -50 0 -50 0 0 410 0 410 -45 0 -45 0 -2 668 -3 667
-47 3 -48 3 0 270 0 269 -50 0 -50 0 0 215 0 215 -45 0 -45 0 0 -220 0 -220
50 0 50 0 0 -265 0 -265 45 0 45 0 0 -669 0 -670 48 -3 47 -3 3 -407 2 -408
-60 0 -60 0 0 45 0 45 -210 0 -210 0 0 565 0 565 25 0 c14 0 25 5 25 10 0 6
14 10 30 10 l30 0 0 211 0 210 -47 -3 -48 -3 -3 -72 -3 -73 -104 0 -105 0 0
-45 0 -45 -44 0 -45 0 -3 -42 -3 -43 -230 -2 c-126 -1 -242 -3 -257 -3 -26 0
-28 -3 -28 -45 l0 -45 -425 0 -425 0 0 45 0 45 -65 0 -66 0 3 63 3 62 153 3
152 3 0 44 0 45 174 0 175 0 3 53 3 52 190 0 190 0 3 -47 3 -48 270 0 269 0 0
45 0 45 -270 0 -270 0 0 50 0 50 -90 0 -90 0 0 65 0 65 210 0 210 0 0 -50 0
-50 105 0 105 0 0 45 0 44 -57 3 -56 3 -1 50 -1 50 -227 3 -228 2 0 30 c0 26
-3 29 -37 32 l-38 3 -3 373 -2 372 -45 0 -45 0 0 275 0 275 55 0 55 0 0 -44 0
-43 53 -7 c28 -3 67 -6 85 -6 32 0 32 0 32 50 l0 50 -35 0 c-35 0 -35 0 -35
45 l0 45 -60 0 c-53 0 -60 2 -61 20 -1 11 -3 25 -4 30 -1 6 -3 15 -4 20 0 6
-19 10 -41 10 l-40 0 0 60 0 60 -54 0 -55 0 -3 53 -3 52 -42 3 -43 3 0 205 0
204 45 0 45 0 0 170 0 170 50 0 50 0 0 185 0 185 -45 0 -45 0 0 -147z"/>
<path d="M8822 5960 l5 -100 -109 0 -108 0 0 -45 0 -45 155 0 155 0 0 68 c0
38 3 103 6 145 l7 77 -58 0 -58 0 5 -100z"/>
<path d="M9880 5625 l0 -125 50 0 50 0 0 125 0 125 -50 0 -50 0 0 -125z"/>
<path d="M9030 5485 l0 -45 45 0 45 0 0 45 0 45 -45 0 -45 0 0 -45z"/>
<path d="M9780 5290 l0 -210 45 0 45 0 0 210 0 210 -45 0 -45 0 0 -210z"/>
<path d="M9680 4831 l0 -251 -60 0 -60 0 0 -45 0 -45 -55 0 -55 0 0 -50 0 -50
-115 0 -115 0 0 -45 0 -45 155 0 155 0 0 45 0 45 125 0 125 0 0 -125 0 -125
45 0 45 0 0 125 0 125 -45 0 -45 0 -2 343 -3 342 -47 3 -48 3 0 -250z"/>
<path d="M8727 3244 c-4 -4 -7 -76 -7 -161 l0 -153 50 0 51 0 -3 158 -3 157
-40 3 c-23 2 -44 0 -48 -4z"/>
<path d="M3900 1935 l0 -55 -55 0 -54 0 -3 -62 -3 -63 -37 -3 -38 -3 0 -90 0
-89 -220 0 -220 0 0 -50 0 -50 -65 0 -65 0 0 -55 0 -55 50 0 c28 0 50 5 50 10
0 6 132 10 375 10 l375 0 0 -50 0 -50 270 0 270 0 0 45 0 45 -232 0 c-128 0
-250 3 -270 6 -37 6 -38 8 -38 50 l0 44 215 0 215 0 0 85 0 85 -55 0 -55 0 0
130 0 130 945 0 945 0 0 -55 0 -55 -55 0 -55 0 0 -55 0 -55 -60 0 -60 0 0 -45
0 -45 115 0 115 0 0 -85 0 -85 -200 0 -200 0 0 -25 0 -25 -255 0 -255 0 0 -45
0 -45 415 0 415 0 0 -50 0 -50 145 0 145 0 0 75 0 74 -57 3 -58 3 0 80 0 80
110 2 c61 1 116 2 123 3 8 0 12 16 12 45 l0 45 39 0 40 0 3 53 3 52 263 3 262
2 0 43 0 42 -392 -3 c-216 -2 -408 -1 -425 3 -32 6 -33 7 -33 61 l0 54 428 -2
427 -3 3 -48 3 -48 87 3 87 3 3 48 3 47 85 0 84 0 0 45 0 45 -1805 0 -1805 0
0 -55z m145 -225 l0 -65 -72 -3 -73 -3 0 71 0 71 73 -3 72 -3 0 -65z"/>
<path d="M4540 1235 l0 -45 376 0 375 0 -3 43 -3 42 -372 3 -373 2 0 -45z"/>
<path d="M8625 1262 c-3 -3 -5 -25 -5 -49 l0 -43 46 0 45 0 -3 48 c-3 47 -3
47 -40 48 -21 1 -40 -1 -43 -4z"/>
<path d="M8522 1123 c3 -48 3 -48 38 -46 19 0 38 1 43 2 4 1 7 21 7 46 l0 45
-46 0 -45 0 3 -47z"/>
<path d="M8317 1064 c-4 -4 -7 -29 -7 -55 l0 -48 -72 -3 -73 -3 -3 -47 -3 -48
-90 0 -89 0 0 -61 c0 -60 0 -60 -27 -59 -16 1 -45 2 -66 1 l-38 -1 3 -132 3
-133 43 -3 42 -3 0 -45 0 -44 50 0 50 0 0 45 0 45 -45 0 -45 0 0 90 0 90 65 0
65 0 0 60 0 60 40 0 40 0 0 45 0 45 125 0 125 0 0 55 c0 53 1 55 28 56 81 3
77 0 77 49 l0 45 -95 3 c-53 1 -99 0 -103 -4z"/>
</g>
</svg>
